<svg t="1649848342164" class="icon" viewBox="0 0 1025 1024" version="1.1" xmlns="http://www.w3.org/2000/svg" p-id="6172" width="200" height="200"><path d="M580.283733 716.8C541.269333 716.8 512.017067 688.7424 512.017067 648.533333L512.017067 580.266667C512.017067 540.040533 541.269333 512 580.283733 512L1024.017067 512 1024.017067 716.8 580.283733 716.8ZM648.5504 546.133333C619.298133 546.133333 580.283733 584.226133 580.283733 614.4 580.283733 644.5568 619.298133 682.666667 648.5504 682.666667 677.802667 682.666667 716.817067 644.5568 716.817067 614.4 716.817067 584.226133 677.802667 546.133333 648.5504 546.133333ZM477.883733 580.266667 477.883733 648.533333C477.883733 708.846933 521.7792 750.933333 580.283733 750.933333L955.7504 750.933333 955.7504 887.466667C955.7504 947.780267 911.854933 989.866667 853.3504 989.866667L102.417067 989.866667C43.912533 989.866667 0.017067 947.780267 0.017067 887.466667L0 216.1664C0 155.835733 43.912533 102.4 102.417067 102.4L409.617067 102.4 341.3504 170.666667 102.417067 170.666667C73.1648 170.666667 35.328 172.322133 35.328 202.478933 35.328 232.6528 39.031467 238.933333 68.283733 238.933333L955.7504 238.933333 955.7504 477.866667 580.283733 477.866667C521.7792 477.866667 477.883733 519.936 477.883733 580.266667ZM375.483733 204.8 697.429333 34.116267 750.9504 204.8 375.483733 204.8ZM785.083733 102.4 853.3504 102.4C884.258133 102.4 902.2464 148.8896 921.617067 170.666667L785.083733 170.666667 785.083733 102.4Z" p-id="6173" fill="#e6e6e6"></path></svg>