<svg t="1649849883169" class="icon" viewBox="0 0 1089 1024" version="1.1" xmlns="http://www.w3.org/2000/svg" p-id="30822" width="200" height="200"><path d="M706.076386 1003.183573l-4.83614 2.73347h-5.46694c-4.415606 0-9.251745 1.051335-14.298152 2.10267a505.902259 505.902259 0 0 1-70.649692 6.518275 105.13347 105.13347 0 0 1-78.850103-25.652567l-5.46694-5.466941-3.784805-5.677207c-22.919097-43.735524-10.513347-110.179877-4.415606-136.883778v-2.10267a46.258727 46.258727 0 0 1 13.246817-22.919096l378.480493-376.377823c1.682136-1.682136 2.73347-2.102669 3.784805-3.364272l3.784805-3.364271 3.784805-2.102669a19.554825 19.554825 0 0 1 4.83614-2.102669l4.415605-1.682136a15.980287 15.980287 0 0 1 4.83614-1.051335 11.985216 11.985216 0 0 1 4.415606 0h1.682135V144.032854A144.243121 144.243121 0 0 0 797.752772 0H144.032854A144.873922 144.873922 0 0 0 0 144.032854v735.934292a144.243121 144.243121 0 0 0 144.032854 144.032854h653.089117a143.822587 143.822587 0 0 0 110.179877-51.5154s9.882546-84.106776 19.134292-182.932239l-207.112937 203.748666a81.583573 81.583573 0 0 1-13.246817 9.882546zM632.27269 248.11499h151.18193a24.706366 24.706366 0 0 1 0 49.412731h-151.18193a24.706366 24.706366 0 0 1 0-49.412731z m0 116.067351h151.18193a24.706366 24.706366 0 0 1 0 49.412731h-151.18193a24.706366 24.706366 0 0 1 0-49.412731zM173.049692 297.948255a22.498563 22.498563 0 0 1-24.601232-19.765093 22.498563 22.498563 0 0 1 24.601232-19.765092h99.245996l-85.368378-84.106776a22.078029 22.078029 0 1 1 31.119507-31.329774l85.999179 84.106776 85.999179-84.106776a22.162136 22.162136 0 0 1 31.329774 31.329774l-85.368378 84.106776h99.245996a22.498563 22.498563 0 0 1 24.601232 19.765092 22.498563 22.498563 0 0 1-24.601232 19.765093h-110.390144v67.285421h110.179877a22.498563 22.498563 0 0 1 24.601232 19.765092 22.498563 22.498563 0 0 1-24.601232 19.765092h-110.179877v118.380288a22.919097 22.919097 0 0 1-21.026694 24.601232 22.919097 22.919097 0 0 1-21.026694-24.601232v-118.170021H173.049692a22.498563 22.498563 0 0 1-24.601232-19.765092 22.498563 22.498563 0 0 1 24.601232-19.765092h109.549076v-67.285421z m-3.364271 369.439014h318.974949a24.706366 24.706366 0 0 1 0 49.412731H169.685421a24.706366 24.706366 0 1 1 0-49.412731z m318.764682 196.599589H169.685421a24.706366 24.706366 0 1 1 0-49.412731h318.974949a24.706366 24.706366 0 0 1 0 49.412731z" p-id="30823" fill="#dbdbdb"></path><path d="M1088.762218 593.373306a26.914168 26.914168 0 0 0-6.518275-23.549897l-117.53922-112.913347-2.10267-1.682136a7.56961 7.56961 0 0 0-2.102669-1.682135s-1.682136 0-2.102669-1.051335-1.051335 0-2.10267-1.051335a4.205339 4.205339 0 0 0-2.73347 0H936.73922c-1.051335 0-1.682136 0-2.10267 1.051335s-1.051335 0-2.102669 1.051335l-2.10267 1.682135s-1.051335 1.051335-1.682135 1.051335l-378.480493 378.480493a24.390965 24.390965 0 0 0-6.518275 11.564681v1.682136c-3.784805 16.400821-18.082957 82.214374 1.682136 120.062423l1.682135 3.364271 2.73347 2.73347a84.106776 84.106776 0 0 0 61.397947 18.713758 483.613963 483.613963 0 0 0 67.285421-6.518275c4.83614 0 9.882546-1.682136 14.298152-2.10267a84.106776 84.106776 0 0 0 9.251745-7.149076l377.218891-372.803285a21.026694 21.026694 0 0 0 5.466941-8.831212c2.73347 0 2.73347-1.051335 3.364271-2.102669z" p-id="30824" fill="#dbdbdb"></path></svg>