<svg t="1649849347192" class="icon" viewBox="0 0 1024 1024" version="1.1" xmlns="http://www.w3.org/2000/svg" p-id="18530" width="200" height="200"><path d="M934.5024 806.7072c5.9392 39.936 40.448 34.0992 46.2848 51.712 0 11.0592-5.9392 51.6096-23.2448 56.9344-17.2032 0-40.448-5.9392-57.6512 0-11.264 5.9392-23.1424 11.1616-29.0816 22.9376-11.1616 28.672 11.264 51.6096 0 62.7712-17.2032 11.0592-52.224 28.672-63.488 16.9984-17.2032-16.9984-17.2032-39.936-52.224-39.936-46.3872 0-46.3872 45.7728-69.5296 45.7728-23.2448 0-63.5904-16.9984-63.5904-34.0992 6.0416-22.9376 17.3056-39.936-5.9392-62.7712-29.0816-22.9376-63.488 0-75.4688-11.0592-17.2032-11.1616-23.1424-39.936-17.2032-57.0368 5.9392-16.9984 46.2848-16.9984 46.2848-62.8736 0-33.9968-40.448-39.936-46.2848-62.8736-5.9392-16.9984 5.9392-45.7728 23.1424-51.6096 29.0816-11.1616 46.3872 11.0592 75.4688-11.1616 17.3056-16.9984 11.264-56.9344 11.264-68.608 6.0416-17.1008 29.0816-22.9376 46.2848-22.9376 34.5088 0 23.2448 39.936 69.5296 45.7728 46.2848 0 40.448-17.1008 63.5904-45.7728 28.9792 0 52.224 11.0592 57.5488 22.9376 11.264 22.8352-11.1616 56.9344 23.2448 79.872 29.0816 16.9984 57.6512-5.9392 75.4688 0 11.264 5.9392 17.2032 22.9376 23.2448 45.7728-11.3664 33.4848-63.6928 27.648-57.6512 79.2576zM725.9136 692.224c-139.0592 33.9968-86.7328 234.2912 46.2848 211.968 133.7344-28.7744 115.9168-240.7424-46.2848-211.968zM488.8576 492.032c-138.9568 0-248.9344-108.6464-248.9344-245.9648S349.7984 0 488.8576 0s248.9344 108.6464 248.9344 245.9648c0 131.584-109.8752 246.0672-248.9344 246.0672z m178.5856 56.9344s-94.72-6.0416-88.6784 56.832c5.9392 68.608-76.8 10.9568-101.9904 80.5888-26.9312 67.2768 13.312 56.9344 31.1296 102.7072 11.264 28.7744-42.7008 45.568-38.4 97.4848 11.1616 86.7328 65.4336 34.0992 82.6368 74.6496 11.264 33.9968-19.0464 56.9344-111.8208 56.9344-75.4688 0-205.824 0-258.1504-5.8368 0 0-150.3232-5.9392-150.3232-102.8096 0 0-5.9392-143.2576 86.7328-245.9648 0 0 98.7136-125.6448 266.1376-125.6448l282.7264 11.0592z" p-id="18531" fill="#dbdbdb"></path></svg>